<!-- preserveAspectRatio="none"  -->
<svg preserveAspectRatio="none" id="svg" viewBox="0 0 1440 400" xmlns="http://www.w3.org/2000/svg" class="transition duration-300 ease-in-out delay-150"><path d="M 0,400 C 0,400 0,133 0,133 C 23.61621813066914,115.81106524957104 47.23243626133828,98.62213049914207 76,96 C 104.76756373866172,93.37786950085793 138.686473085316,105.32254325300272 174,126 C 209.313526914684,146.67745674699728 246.0216713973976,176.08769648884697 278,177 C 309.9783286026024,177.91230351115303 337.2268413250936,150.32667079160942 362,148 C 386.7731586749064,145.67332920839058 409.0709633022282,168.6056203447154 441,165 C 472.9290366977718,161.3943796552846 514.4893054659939,131.250847829529 542,114 C 569.5106945340061,96.74915217047099 582.9718148337961,92.39098833716855 615,109 C 647.0281851662039,125.60901166283145 697.6234351988218,163.18519882179675 730,169 C 762.3765648011782,174.81480117820325 776.5344443709167,148.8682163756444 802,136 C 827.4655556290833,123.13178362435559 864.2387873175111,123.34193567562559 902,127 C 939.7612126824889,130.6580643243744 978.5104063590386,137.7640409218531 1003,133 C 1027.4895936409614,128.2359590781469 1037.7195872463349,111.60190063696203 1065,126 C 1092.2804127536651,140.39809936303797 1136.6112446556215,185.82835653029883 1170,175 C 1203.3887553443785,164.17164346970117 1225.8354341311785,97.08467324184261 1251,85 C 1276.1645658688215,72.91532675815739 1304.0470188196632,115.83295050233068 1336,133 C 1367.9529811803368,150.16704949766932 1403.9764905901684,141.58352474883466 1440,133 C 1440,133 1440,400 1440,400 Z" stroke="none" stroke-width="0" fill="#2f354388" class="transition-all duration-300 ease-in-out delay-150 path-0"></path><path d="M 0,400 C 0,400 0,266 0,266 C 36.93548267739281,255.22695622135467 73.87096535478562,244.45391244270937 103,242 C 132.12903464521438,239.54608755729063 153.45162125825024,245.4113064505172 180,258 C 206.54837874174976,270.5886935494828 238.32254961221338,289.90086175522197 265,299 C 291.6774503877866,308.09913824477803 313.25818029289627,306.985246528595 344,314 C 374.74181970710373,321.014753471405 414.64472921620165,336.1581521303982 445,314 C 475.35527078379835,291.8418478696018 496.16290284229717,232.38214494981236 523,226 C 549.8370971577028,219.61785505018764 582.7036594146098,266.31326807035254 617,274 C 651.2963405853902,281.68673192964746 687.0224594992636,250.36478276877762 716,252 C 744.9775405007364,253.63521723122238 767.2065025883356,288.22760085453706 802,295 C 836.7934974116644,301.77239914546294 884.1515301473937,280.7248138130742 915,262 C 945.8484698526063,243.27518618692577 960.1873768220898,226.87314389316595 987,223 C 1013.8126231779102,219.12685610683405 1053.0989625642467,227.78261061426215 1083,225 C 1112.9010374357533,222.21738938573785 1133.4167729209234,207.99641364978538 1163,219 C 1192.5832270790766,230.00358635021462 1231.2339457520588,266.2317347865962 1260,279 C 1288.7660542479412,291.7682652134038 1307.6474440708403,281.0766472038297 1336,275 C 1364.3525559291597,268.9233527961703 1402.1762779645799,267.46167639808516 1440,266 C 1440,266 1440,400 1440,400 Z" stroke="none" stroke-width="0" fill="#2f3543ff" class="transition-all duration-300 ease-in-out delay-150 path-1"></path></svg>