<!-- preserveAspectRatio="none"  -->
<svg preserveAspectRatio="none" id="svg" viewBox="0 0 1440 400" xmlns="http://www.w3.org/2000/svg" class="transition duration-300 ease-in-out delay-150"><path d="M 0,400 C 0,400 0,133 0,133 C 38.992856317138106,150.87817682194122 77.98571263427621,168.75635364388248 104,177 C 130.0142873657238,185.24364635611752 143.0500057800333,183.8527622464113 167,161 C 190.9499942199667,138.1472377535887 225.8142642455906,93.83259737047229 263,98 C 300.1857357544094,102.16740262952771 339.69293723760427,154.8168482716996 372,172 C 404.30706276239573,189.1831517283004 429.41398680399215,170.9000095427293 454,164 C 478.58601319600785,157.0999904572707 502.6511155464268,161.58311355738314 529,171 C 555.3488844535732,180.41688644261686 583.9815510103006,194.76753622773816 616,176 C 648.0184489896994,157.23246377226184 683.422680412371,105.34674153166422 716,102 C 748.577319587629,98.65325846833578 778.327727340215,143.845497645605 806,153 C 833.672272659785,162.154502354395 859.2664102267689,135.27126788591585 889,122 C 918.7335897732311,108.72873211408415 952.6066317527088,109.06943081073166 985,118 C 1017.3933682472912,126.93056918926834 1048.3070627623958,144.45100887115754 1080,160 C 1111.6929372376042,175.54899112884246 1144.1651171977085,189.12653370463818 1177,181 C 1209.8348828022915,172.87346629536182 1243.0324684467707,143.04285631028972 1272,133 C 1300.9675315532293,122.95714368971029 1325.7050090152084,132.70204105420294 1353,136 C 1380.2949909847916,139.29795894579706 1410.1474954923958,136.14897947289853 1440,133 C 1440,133 1440,400 1440,400 Z" stroke="none" stroke-width="0" fill="#2f354388" class="transition-all duration-300 ease-in-out delay-150 path-0" transform="rotate(-180 720 200)"></path><path d="M 0,400 C 0,400 0,266 0,266 C 22.252322310349356,281.21768325953644 44.50464462069871,296.43536651907294 75,297 C 105.49535537930129,297.56463348092706 144.23374382755452,283.47621718324456 176,264 C 207.76625617244548,244.5237828167554 232.56038006908335,219.65976474794866 261,225 C 289.43961993091665,230.34023525205134 321.5247358961122,265.8847238249607 358,270 C 394.4752641038878,274.1152761750393 435.34067634646806,246.80133995220848 466,240 C 496.65932365353194,233.19866004779152 517.112558718016,246.90991636620538 543,252 C 568.887441281984,257.0900836337946 600.209088781468,253.55899458297 627,268 C 653.790911218532,282.44100541703 676.0510861561119,314.85410530191456 709,309 C 741.9489138438881,303.14589469808544 785.5865665940842,259.0245842093717 822,243 C 858.4134334059158,226.97541579062832 887.6026474675512,239.04755786059874 915,246 C 942.3973525324488,252.95244213940126 968.0028435357117,254.78518434823332 996,267 C 1023.9971564642883,279.2148156517667 1054.385978389602,301.81170474646785 1081,286 C 1107.614021610398,270.18829525353215 1130.4532429058797,215.96799666589524 1161,219 C 1191.5467570941203,222.03200333410476 1229.8010499868785,282.3163085899513 1265,307 C 1300.1989500131215,331.6836914100487 1332.3425571466062,320.7667689742996 1361,308 C 1389.6574428533938,295.2332310257004 1414.828721426697,280.6166155128502 1440,266 C 1440,266 1440,400 1440,400 Z" stroke="none" stroke-width="0" fill="#2f3543ff" class="transition-all duration-300 ease-in-out delay-150 path-1" transform="rotate(-180 720 200)"></path></svg>